<svg width="24" height="17" viewBox="0 0 24 17" fill="none" xmlns="http://www.w3.org/2000/svg">
<g id="visibility">
<path id="Path" fill-rule="evenodd" clip-rule="evenodd" d="M15.3237 6.12582C15.128 5.95806 14.8098 5.95806 14.6141 6.12582C14.4184 6.29358 14.4184 6.56715 14.6141 6.73407C15.1822 7.22101 15.4963 7.86882 15.4963 8.55877C15.4963 9.98169 14.1453 11.1397 12.4852 11.1397C11.6803 11.1397 10.9245 10.8713 10.3564 10.3835C10.1607 10.2157 9.84251 10.2157 9.64679 10.3835C9.45107 10.5504 9.45107 10.824 9.64679 10.9917C10.4036 11.6421 11.4123 12 12.4852 12C14.6994 12 16.5 10.4566 16.5 8.55881C16.5 7.63908 16.0825 6.77447 15.3237 6.12582Z" fill="#5282F0"/>
<path id="Path_2" fill-rule="evenodd" clip-rule="evenodd" d="M12.1769 4.06751C11.9992 4.02839 11.8176 4 11.6313 4C9.9044 4 8.5 5.75539 8.5 7.91389C8.5 8.14675 8.52271 8.37379 8.55479 8.59587C8.58844 8.83268 8.75364 9 8.93917 9C8.96188 9 8.98456 8.99803 9.00805 8.99216C9.22018 8.94519 9.36267 8.69077 9.32509 8.42562C9.30084 8.25926 9.28282 8.09002 9.28282 7.91389C9.28282 6.29551 10.3365 4.97846 11.6313 4.97846C11.7722 4.97846 11.9077 5.00098 12.0407 5.03034C12.249 5.08317 12.4564 4.8992 12.494 4.63405C12.5316 4.3689 12.3891 4.11448 12.1769 4.06751Z" fill="#5282F0"/>
<path id="Path_3" fill-rule="evenodd" clip-rule="evenodd" d="M23.3793 8.02738C23.2646 7.89977 20.5208 4.89386 16.7363 3.05337C16.4908 2.93246 16.1814 3.02387 16.0526 3.2581C15.9238 3.49139 16.0211 3.77891 16.2707 3.89986C19.1859 5.31665 21.5149 7.52754 22.3112 8.33498C21.1021 9.56419 16.3437 14.0479 11.3277 14.0479C9.62566 14.0479 7.91037 13.6622 6.22756 12.9005C5.97803 12.7853 5.67272 12.8853 5.551 13.1224C5.42828 13.3585 5.53479 13.6432 5.78736 13.7574C7.60811 14.583 9.47251 15 11.3278 15C17.5772 15 23.1461 8.90243 23.3804 8.64249C23.5406 8.46535 23.5396 8.20541 23.3793 8.02738Z" fill="#5282F0"/>
<path id="Path_4" fill-rule="evenodd" clip-rule="evenodd" d="M15.1733 2.54066C14.0805 2.18114 13.0205 2 12.0228 2C6.1068 2 0.835168 8.01109 0.613357 8.26734C0.473149 8.42877 0.461626 8.66346 0.586485 8.83898C0.652741 8.9319 2.23999 11.1349 4.99103 12.9212C5.07264 12.9747 5.16387 13 5.25605 13C5.41067 13 5.56334 12.9268 5.65552 12.7888C5.80244 12.5739 5.74194 12.2819 5.52108 12.1392C3.50078 10.8261 2.11806 9.24073 1.60048 8.59588C2.70571 7.42256 7.23989 2.93867 12.0228 2.93867C12.9167 2.93867 13.8741 3.10389 14.8669 3.42957C15.1185 3.51779 15.3912 3.3817 15.4747 3.13482C15.5593 2.88891 15.4248 2.62329 15.1733 2.54066Z" fill="#5282F0"/>
<path id="Path_5" fill-rule="evenodd" clip-rule="evenodd" d="M21.3537 0.13813C21.1587 -0.0460435 20.8417 -0.0460435 20.6467 0.13813L3.64625 16.1943C3.45125 16.3785 3.45125 16.6779 3.64625 16.8621C3.74427 16.9537 3.87225 17 4.00026 17C4.12828 17 4.25626 16.9537 4.35329 16.8621L21.3537 0.805893C21.5488 0.62172 21.5488 0.322304 21.3537 0.13813Z" fill="#5282F0"/>
</g>
</svg>
